<?xml version="1.0" standalone="no"?>
<!DOCTYPE svg PUBLIC "-//W3C//DTD SVG 20010904//EN"
 "http://www.w3.org/TR/2001/REC-SVG-20010904/DTD/svg10.dtd">
<svg version="1.0" xmlns="http://www.w3.org/2000/svg"
 width="430.000000pt" height="430.000000pt" viewBox="0 0 430.000000 430.000000"
 preserveAspectRatio="xMidYMid meet">
<metadata>
Created by potrace 1.14, written by Peter Selinger 2001-2017
</metadata>
<g transform="translate(0.000000,430.000000) scale(0.100000,-0.100000)"
fill="#000000" stroke="none">
<path d="M2313 2617 c-32 -30 -35 -37 -29 -70 15 -81 120 -116 185 -61 26 21
31 33 31 68 0 29 -6 48 -17 57 -64 51 -118 53 -170 6z"/>
<path d="M954 2621 c-57 -15 -115 -55 -145 -101 -29 -42 -30 -50 -27 -127 3
-77 5 -84 36 -116 19 -19 57 -47 85 -62 29 -16 60 -35 70 -43 21 -19 22 -55 2
-72 -23 -19 -132 -7 -178 19 -21 11 -42 21 -47 21 -10 0 -24 -48 -35 -117 l-7
-43 49 -22 c40 -18 67 -22 163 -22 102 -1 120 2 160 23 90 47 130 106 130 191
0 87 -37 139 -154 214 -60 38 -75 59 -60 84 16 24 147 24 184 -1 34 -22 48
-10 60 52 16 84 14 90 -27 108 -42 17 -211 27 -259 14z"/>
<path d="M3345 2555 c-22 -7 -59 -18 -82 -25 -42 -11 -43 -11 -43 -55 0 -43 0
-44 -37 -47 l-38 -3 0 -70 0 -70 38 -3 37 -3 0 -115 c0 -125 7 -149 59 -198
25 -24 40 -29 98 -33 37 -3 84 -1 103 4 l35 9 0 70 0 69 -35 3 c-55 5 -60 15
-60 108 l0 83 48 3 47 3 0 70 0 70 -47 3 -48 3 0 70 c0 78 -2 79 -75 54z"/>
<path d="M1624 2433 c-12 -2 -40 -20 -62 -39 l-41 -34 -3 32 -3 33 -89 0 -90
0 -38 -185 c-20 -102 -42 -207 -47 -235 -6 -27 -19 -94 -31 -148 -30 -149 -37
-138 78 -135 l97 3 18 80 c10 44 20 89 23 101 3 19 13 22 86 27 129 9 215 66
267 177 34 73 37 206 6 258 -36 60 -91 81 -171 65z m-10 -169 c18 -48 -10
-140 -55 -183 -14 -13 -36 -21 -57 -21 -34 0 -34 1 -28 34 13 67 36 134 57
160 23 30 73 36 83 10z"/>
<path d="M2156 2400 l-44 -41 1 33 2 33 -89 3 c-49 2 -93 -1 -98 -6 -5 -5 -15
-46 -23 -93 -8 -46 -24 -127 -35 -179 -35 -162 -40 -192 -34 -201 3 -5 46 -9
95 -9 106 0 98 -9 129 148 12 57 28 115 37 128 20 32 67 56 101 54 15 -1 32
-2 38 -1 14 1 48 146 39 161 -3 5 -22 10 -41 10 -26 0 -45 -9 -78 -40z"/>
<path d="M2865 2424 c-16 -8 -40 -24 -52 -36 l-21 -20 -4 28 -3 29 -100 0
-100 0 0 -240 0 -240 100 0 100 0 5 155 c3 85 9 161 13 168 5 6 21 12 37 12
16 0 32 -6 37 -12 4 -7 10 -83 13 -168 l5 -155 98 -3 97 -3 0 189 c0 175 -2
191 -22 232 -37 73 -130 102 -203 64z"/>
<path d="M2295 2418 c-3 -8 -4 -117 -3 -243 l3 -230 100 0 100 0 0 240 0 240
-98 3 c-73 2 -99 -1 -102 -10z"/>
</g>
</svg>
